HIERARCHY
ROOT hip
{
	OFFSET 0.000000 0.000000 0.000000 
	CHANNELS 6 Xposition Yposition Zposition Zrotation Xrotation Yrotation
	JOINT abdomen
	{
		OFFSET 0.000000 3.402643 0.000000 
		CHANNELS 3 Zrotation Xrotation Yrotation
		JOINT chest
		{
			OFFSET 0.000000 8.438565 -0.680529 
			CHANNELS 3 Zrotation Xrotation Yrotation
			JOINT neck
			{
				OFFSET 0.000000 10.207942 -0.272212 
				CHANNELS 3 Zrotation Xrotation Yrotation
				JOINT head
				{
					OFFSET 0.000000 3.130431 0.000000 
					CHANNELS 3 Zrotation Xrotation Yrotation
					End Site
					{
						OFFSET 0.000000 3.130435 0.000000 
					}
				}
			}
			JOINT lCollar
			{
				OFFSET 3.470700 6.669187 -0.816635 
				CHANNELS 3 Zrotation Xrotation Yrotation
				JOINT lShldr
				{
					OFFSET 3.198488 0.000000 0.000000 
					CHANNELS 3 Zrotation Xrotation Yrotation
					JOINT lForeArm
					{
						OFFSET 10.139888 0.000000 0.000000 
						CHANNELS 3 Zrotation Xrotation Yrotation
						JOINT lHand
						{
							OFFSET 8.370511 0.000000 0.000000 
							CHANNELS 3 Zrotation Xrotation Yrotation
							End Site
							{
								OFFSET 4.083176 0.000000 0.000000 
							}
						}
					}
				}
			}
			JOINT rCollar
			{
				OFFSET -3.470700 6.669187 -0.816635 
				CHANNELS 3 Zrotation Xrotation Yrotation
				JOINT rShldr
				{
					OFFSET -3.198488 0.000000 0.000000 
					CHANNELS 3 Zrotation Xrotation Yrotation
					JOINT rForeArm
					{
						OFFSET -10.139888 0.000000 0.000000 
						CHANNELS 3 Zrotation Xrotation Yrotation
						JOINT rHand
						{
							OFFSET -8.370511 0.000000 0.000000 
							CHANNELS 3 Zrotation Xrotation Yrotation
							End Site
							{
								OFFSET -4.083176 0.000000 0.000000 
							}
						}
					}
				}
			}
		}
	}
	JOINT lThigh
	{
		OFFSET 5.308129 -1.633274 1.361059 
		CHANNELS 3 Zrotation Xrotation Yrotation
		JOINT lShin
		{
			OFFSET -2.041588 -20.007561 0.000000 
			CHANNELS 3 Zrotation Xrotation Yrotation
			JOINT lFoot
			{
				OFFSET 0.000000 -19.190928 -1.224953 
				CHANNELS 3 Zrotation Xrotation Yrotation
				End Site
				{
					OFFSET 0.000000 -2.449906 4.627600 
				}
			}
		}
	}
	JOINT rThigh
	{
		OFFSET -5.308129 -1.633274 1.361059 
		CHANNELS 3 Zrotation Xrotation Yrotation
		JOINT rShin
		{
			OFFSET 2.041588 -20.007561 0.000000 
			CHANNELS 3 Zrotation Xrotation Yrotation
			JOINT rFoot
			{
				OFFSET 0.000000 -19.190928 -1.224953 
				CHANNELS 3 Zrotation Xrotation Yrotation
				End Site
				{
					OFFSET 0.000000 -2.449906 4.627600 
				}
			}
		}
	}
}
MOTION
Frames: 20
Frame Time: 0.016667
0.268265 39.379505 -0.705663 -0.654297 5.556640 -8.164170 -0.387094 12.841300 -2.421440 -4.527250 -16.950001 2.677620 -5.967140 -8.602490 8.759880 0.881953 2.999880 4.548660 8.865460 1.556610 9.879320 -83.300201 -6.906680 -50.501701 1.617830 -2.173440 -69.374199 -144.408997 -5.131430 158.992996 1.998780 -0.069785 -1.998780 85.073097 17.372200 -5.584230 0.988521 0.332543 40.132099 0.053976 49.550999 0.001278 0.093843 -31.316999 8.057110 1.815930 56.646000 2.462250 -3.902440 -24.768299 -8.599800 10.941900 -32.427399 13.211200 -1.930450 54.623501 -2.317740 -0.337342 -24.057800 -2.255320 
0.212098 39.321804 -0.812548 -0.595704 5.654300 -8.125090 -0.436666 12.821700 -2.364790 -4.593850 -16.631800 -5.736430 -5.865800 -8.902570 8.696370 0.901573 2.931540 4.508230 -1.998780 -0.069785 1.998780 -67.075500 -7.178390 -49.280998 1.619160 -2.179490 -69.608498 -0.086334 5.455280 0.093430 1.998780 -0.069785 -1.998780 85.162598 17.974400 -5.316830 1.019300 0.353722 41.195801 0.055071 49.180000 -0.000312 0.235859 -31.778400 8.196940 1.801980 57.048500 2.490720 -4.031790 -24.730200 -8.888170 11.172300 -32.964298 13.541500 -1.907070 55.163700 -2.360390 -0.330472 -23.920000 -2.264850 
0.127773 39.224804 -0.945419 -0.576172 5.595700 -8.017680 -0.426637 12.782700 -2.339040 -4.675040 -16.418501 -5.688180 -5.628280 -9.261160 8.629210 0.979845 2.863250 4.473460 -1.998780 -0.069785 1.998780 -66.994301 -7.236370 -50.067101 1.620570 -2.186060 -69.862198 -0.097344 5.416230 0.102201 1.998780 -0.069785 -1.998780 85.302498 18.520100 -4.963960 1.049960 0.375671 42.269100 0.055919 48.887001 -0.001552 0.450492 -32.131401 8.336210 1.774090 57.548500 2.509820 -4.214750 -24.519699 -9.417030 11.449000 -33.365398 13.799900 -1.849100 55.792900 -2.425560 -0.261653 -23.809200 -2.195940 
0.022539 39.085903 -1.100380 -0.458985 5.214840 -7.636790 -0.277689 12.714700 -2.421100 -4.795850 -16.072399 -5.807220 -5.370940 -9.855250 8.580950 1.077720 2.697310 4.447090 -1.998780 -0.069785 1.998780 -66.951599 -7.441710 -50.727501 1.622530 -2.195410 -70.223297 -0.087310 5.435730 0.093401 1.998780 -0.069785 -1.998780 85.286499 19.341801 -4.452020 1.075550 0.394673 43.176601 0.056724 48.604000 -0.002736 0.405432 -32.358299 8.164610 1.720090 58.432301 2.585650 -4.372030 -24.594101 -9.743710 11.421500 -33.610600 13.573600 -1.793090 56.715599 -2.489040 -0.437038 -23.455700 -2.636330 
-0.082064 38.867706 -1.301560 -0.791015 4.990240 -7.363410 -0.346854 12.597300 -2.386790 -4.809140 -15.720300 -5.814310 -4.975850 -10.558100 8.556930 1.204900 2.502090 4.428430 -1.998780 -0.069785 1.998780 -66.753799 -7.663260 -51.604198 1.623660 -2.200980 -70.438004 -0.088116 5.211150 0.103404 1.998780 -0.069785 -1.998780 85.165398 20.372000 -3.837420 1.100310 0.413656 44.064499 0.056999 48.506001 -0.003141 1.024260 -32.901699 8.300590 1.675660 59.578899 2.628200 -4.447480 -24.577900 -9.950910 11.968400 -34.050900 13.347500 -1.725670 57.619301 -2.570930 -0.513587 -23.000601 -2.956500 
-0.194538 38.669903 -1.543000 -1.357430 4.902340 -6.718950 -0.544988 12.577200 -2.345830 -4.771140 -15.298200 -5.869750 -5.004990 -11.301700 8.361740 1.126830 2.355550 4.346000 -1.998780 -0.069785 1.998780 -66.483101 -7.779360 -52.785900 1.623660 -2.200980 -70.438004 -0.086590 4.927920 0.094313 1.998780 -0.069785 -1.998780 84.932800 21.315201 -3.066890 1.117270 0.427021 44.679199 0.056916 48.535000 -0.003020 1.723630 -33.711399 7.966830 1.552150 60.798000 2.791040 -4.618680 -24.368900 -10.443000 12.672100 -34.541901 13.029500 -1.643480 58.229698 -2.672810 -0.632149 -22.975300 -3.337490 
-0.279853 38.547306 -1.842470 -1.669930 5.039060 -5.674050 -0.672761 12.332600 -2.417580 -4.785790 -15.025100 -6.131510 -4.377270 -12.341600 8.231190 1.351680 2.004110 4.271680 -1.998780 -0.069785 1.998780 -66.227501 -7.808330 -54.114899 1.621950 -2.192630 -70.115997 -0.086834 4.410360 0.095230 1.998780 -0.069785 -1.998780 84.555901 21.982800 -2.313760 1.124760 0.433019 44.952400 0.056226 48.778999 -0.002002 1.822590 -34.814800 7.024950 1.465350 61.652500 2.890990 -4.701250 -23.443899 -10.966100 12.630300 -35.054199 12.102500 -1.589590 58.221699 -2.723360 -0.784081 -23.084101 -3.612720 
-0.346110 38.541706 -2.208900 -2.177740 5.664060 -4.277550 -0.780380 12.088000 -2.496420 -4.644550 -14.810100 -6.394430 -3.959300 -13.153300 8.032080 1.517730 1.828380 4.162400 -1.998780 -0.069785 1.998780 -66.107101 -7.691270 -55.849602 1.618940 -2.178480 -69.569397 -0.087206 3.336120 0.097068 1.998780 -0.069785 -1.998780 83.981697 22.521299 -1.478110 1.118870 0.428304 44.737801 0.058826 47.841999 -0.005861 1.829450 -36.400299 5.432850 1.416000 62.084900 2.950120 -4.526040 -21.700199 -11.272300 12.615300 -35.929001 10.950400 -1.616650 57.486500 -2.690030 -0.874352 -22.504499 -3.847250 
-0.361720 38.743404 -2.615900 -2.548820 6.708990 -2.050930 -0.641134 11.854200 -2.789840 -4.380510 -14.652300 -6.920920 -4.010070 -14.126600 7.733750 1.478720 1.662360 4.038190 -1.998780 -0.069785 1.998780 -66.060799 -7.268550 -57.813301 1.616930 -2.169400 -69.218002 -0.097948 2.115440 0.109651 1.998780 -0.069785 -1.998780 82.874496 22.295200 -0.504101 1.119680 0.428946 44.766998 0.056559 48.661999 -0.002491 0.946038 -38.323101 2.671650 1.416580 61.712502 2.936540 -4.225770 -18.604000 -11.865400 11.916200 -36.922001 9.196410 -1.672050 55.946800 -2.608260 -0.946426 -21.311701 -4.031330 
-0.351000 39.214905 -3.092100 -2.792970 8.027350 0.449202 -0.127950 11.513700 -3.196690 -3.960470 -14.551500 -7.448840 -4.089760 -15.513700 7.503390 1.400750 1.330300 3.945990 -1.998780 -0.069785 1.998780 -65.684898 -6.580630 -59.670101 1.614520 -2.158830 -68.808098 -0.097650 1.412330 0.110594 1.998780 -0.069785 -1.998780 81.520798 21.642000 0.823536 1.107590 0.419361 44.327900 0.057190 48.438000 -0.003424 -0.297268 -40.149101 -0.310367 1.519480 60.221500 2.821630 -3.591150 -14.436100 -12.455200 10.904700 -37.684898 7.562070 -1.784240 53.083500 -2.479240 -1.162190 -19.296000 -4.608430 
-0.279053 39.912903 -3.574240 -3.115230 9.335940 2.841480 0.560005 11.229500 -3.666060 -3.390090 -14.389700 -7.993510 -4.405690 -17.074301 7.421700 1.215580 0.929825 3.958970 -1.998780 -0.069785 1.998780 -64.928101 -6.134800 -61.063000 1.614520 -2.158830 -68.808098 -0.097594 1.383030 0.110593 1.998780 -0.069785 -1.998780 79.928398 20.730301 2.543540 1.086470 0.402969 43.566799 0.057353 48.379002 -0.003667 -1.319040 -41.391998 -2.849420 1.652790 57.935200 2.648420 -3.460820 -11.283600 -14.689600 9.898830 -37.764000 6.327000 -1.934890 49.058899 -2.236390 -1.416060 -16.928301 -5.380360 
-0.123293 40.627106 -4.088580 -3.828120 11.357500 4.814160 1.167680 11.031000 -3.999650 -2.580020 -14.436100 -8.246680 -5.113380 -18.747900 7.251820 0.845521 0.402183 3.945850 -1.998780 -0.069785 1.998780 -64.150200 -5.578830 -62.454899 1.614640 -2.159330 -68.827599 -0.087513 1.617370 0.100853 1.998780 -0.069785 -1.998780 78.281700 19.162100 4.248850 1.068980 0.389730 42.942299 0.056751 48.594002 -0.002776 -1.581420 -42.983299 -4.188020 1.712030 56.473900 2.569940 -3.567810 -8.622300 -18.806000 9.403740 -38.226601 5.943880 -2.018910 44.076801 -2.078590 -1.468480 -14.059400 -5.817670 
0.134750 41.328304 -4.557950 -3.740240 13.457000 6.318260 1.599310 11.017600 -4.231380 -2.064970 -14.544600 -8.423030 -5.367750 -19.735399 7.048550 0.748393 0.109109 3.884330 -1.998780 -0.069785 1.998780 -62.451000 -4.723780 -63.415298 1.614230 -2.157570 -68.759300 -0.098008 1.597860 0.110603 1.998780 -0.069785 -1.998780 76.946701 17.155100 5.544150 1.064860 0.386654 42.796001 0.056724 48.604000 -0.002736 -2.416600 -43.452202 -4.874520 1.633990 56.467499 2.661960 -3.572860 -7.965340 -19.195700 7.691530 -38.716999 5.088190 -2.058800 39.367699 -1.916870 -1.420820 -11.186000 -5.666450 
0.500325 42.017605 -4.931560 -1.601560 14.970700 7.245990 2.217800 11.039700 -4.646560 -2.299320 -14.617900 -8.899510 -5.727390 -19.965099 6.744560 0.641233 0.099214 3.764880 -1.998780 -0.069785 1.998780 -60.715500 -3.835350 -63.960400 1.614520 -2.158830 -68.808098 -0.087384 0.953315 0.101811 1.998780 -0.069785 -1.998780 75.706398 15.495400 6.230960 1.075830 0.394880 43.186298 0.055890 48.896999 -0.001510 -5.297920 -41.936798 -5.836420 1.426020 57.464100 2.895310 -3.604560 -8.964190 -16.473000 3.436370 -38.689602 3.291740 -2.149340 35.761200 -1.732090 -1.319170 -8.936690 -4.930550 
0.821760 42.432205 -5.392430 -1.884770 16.552700 7.753870 2.353420 10.920600 -4.577860 -1.741740 -14.847600 -8.620430 -5.856510 -20.389700 6.430020 0.612237 -0.076606 3.639970 -1.998780 -0.069785 1.998780 -59.258499 -2.926460 -64.485100 1.615910 -2.164870 -69.042397 -0.087806 0.601752 0.102773 1.998780 -0.069785 -1.998780 74.619698 14.078600 6.536040 1.107590 0.419361 44.327900 0.055610 48.993999 -0.001099 -4.322920 -41.341202 -5.506670 1.206970 60.025700 3.144650 -2.412270 -7.711860 -12.138300 2.879630 -39.012699 3.866180 -2.117890 32.044899 -1.671050 -1.370190 -6.400830 -5.251510 
1.159040 42.610504 -5.882050 -1.845710 17.441401 8.115200 2.535320 10.644400 -4.535810 -1.370490 -15.034800 -8.399010 -6.169410 -21.158701 5.965650 0.758180 0.070058 3.453950 -1.998780 -0.069785 1.998780 -58.105499 -1.890380 -64.691902 1.618720 -2.177470 -69.530296 -0.087700 0.543162 0.102772 1.998780 -0.069785 -1.998780 73.918503 12.893000 6.596550 1.141780 0.446864 45.576900 0.056420 48.710999 -0.002288 -3.436810 -39.965500 -5.600000 1.046830 62.682800 3.350480 -1.126390 -5.148220 -7.713170 2.031030 -39.289101 4.090920 -2.067080 29.535801 -1.633480 -1.369420 -4.454480 -5.517720 
1.548760 42.587006 -6.406720 -1.591790 17.812500 8.398350 2.603190 10.604300 -4.501900 -1.148650 -15.012000 -8.266630 -6.073090 -21.627300 5.556130 0.846074 -0.134925 3.272020 -1.998780 -0.069785 1.998780 -57.510601 -1.078550 -64.779503 1.622940 -2.197430 -70.301399 -0.087700 0.543162 0.102772 1.998780 -0.069785 -1.998780 73.505302 11.703300 6.888660 1.171190 0.471537 46.669800 0.057025 48.495998 -0.003181 -2.774410 -37.891499 -5.969910 1.049280 64.208702 3.346240 -0.109326 -2.090180 -2.641580 0.925809 -39.910999 4.085050 -2.113920 28.873800 -1.572570 -1.447660 -3.797220 -5.855550 
2.001120 42.409706 -6.958480 -2.011720 17.763599 8.476260 2.672840 10.671500 -4.409300 -0.639063 -14.887600 -8.008270 -5.957740 -22.174500 5.162320 0.992407 -0.408225 3.125070 -1.998780 -0.069785 1.998780 -57.603298 -0.474813 -64.544098 1.627660 -2.221510 -71.228699 -0.088202 0.250202 0.103739 1.998780 -0.069785 -1.998780 72.901604 10.991000 7.519890 1.199100 0.495855 47.723598 0.059245 47.686001 -0.006491 -1.165970 -35.568699 -6.039170 1.196670 65.085098 3.183380 0.392828 -0.555624 1.758490 0.786546 -40.675499 4.508660 -2.145420 29.057600 -1.552850 -1.471660 -3.079560 -6.278850 
2.539840 42.084305 -7.530660 -2.919920 17.744200 8.573850 2.516370 10.683800 -4.284830 -0.135322 -14.878000 -7.796260 -5.694310 -22.521500 4.870410 1.148340 -0.613186 2.987190 -1.998780 -0.069785 1.998780 -57.650200 0.102562 -63.844200 1.632380 -2.247950 -72.243698 -0.087572 -0.111128 0.104735 1.998780 -0.069785 -1.998780 72.462997 10.597900 8.206570 1.227320 0.521378 48.806599 0.061037 47.001999 -0.009207 0.849518 -33.258999 -6.139870 1.489710 64.861603 2.863850 0.578815 0.568964 3.579660 1.183720 -41.791100 5.182360 -2.175280 29.722200 -1.533290 -1.504470 -2.610770 -6.728780 
3.166960 41.731205 -8.173700 -3.935550 17.822201 8.456420 2.391900 10.871200 -4.113140 0.446555 -14.843800 -7.472420 -5.534820 -22.616800 4.442020 1.255440 -0.671716 2.764840 -1.998780 -0.069785 1.998780 -57.400501 0.716961 -63.175900 1.635410 -2.266560 -72.956299 -0.088486 -0.784939 0.115686 1.998780 -0.069785 -1.998780 71.968102 10.205900 9.199640 1.261720 0.553849 50.153198 0.054962 45.566002 -0.000761 2.631000 -31.088100 -6.485400 1.913390 63.291500 2.399800 0.471137 3.302710 1.746890 1.785140 -43.120300 6.312720 -2.173510 30.429100 -1.548880 -1.555880 -2.012500 -7.174550 
